<mxfile host="app.diagrams.net" agent="Mozilla/5.0 (Windows NT 10.0; Win64; x64) AppleWebKit/537.36 (KHTML, like Gecko) Chrome/131.0.0.0 Safari/537.36" version="26.0.2">
  <diagram name="第 1 页" id="e5g9b-ZnYlDm0rSGBvWs">
    <mxGraphModel grid="1" page="1" gridSize="10" guides="1" tooltips="1" connect="1" arrows="1" fold="1" pageScale="1" pageWidth="827" pageHeight="1169" math="0" shadow="0">
      <root>
        <mxCell id="0" />
        <mxCell id="1" parent="0" />
        <mxCell id="4tK40up8DokBDBoEPIN_-100" value="&lt;span style=&quot;font-size: 11px; background-color: rgb(255, 255, 255);&quot;&gt;7.1.1.1:扣錢(20)&lt;/span&gt;" style="text;html=1;align=center;verticalAlign=middle;resizable=0;points=[];autosize=1;strokeColor=none;fillColor=none;" vertex="1" parent="1">
          <mxGeometry x="480" y="435" width="100" height="30" as="geometry" />
        </mxCell>
        <mxCell id="4tK40up8DokBDBoEPIN_-4" value="客戶" style="rounded=0;whiteSpace=wrap;html=1;" vertex="1" parent="1">
          <mxGeometry x="60" y="40" width="100" height="30" as="geometry" />
        </mxCell>
        <mxCell id="4tK40up8DokBDBoEPIN_-5" value="取錢機" style="rounded=0;whiteSpace=wrap;html=1;" vertex="1" parent="1">
          <mxGeometry x="540" y="40" width="100" height="30" as="geometry" />
        </mxCell>
        <mxCell id="4tK40up8DokBDBoEPIN_-6" value="帳目" style="rounded=0;whiteSpace=wrap;html=1;" vertex="1" parent="1">
          <mxGeometry x="430" y="40" width="100" height="30" as="geometry" />
        </mxCell>
        <mxCell id="4tK40up8DokBDBoEPIN_-7" value="ATM屏幕" style="rounded=0;whiteSpace=wrap;html=1;" vertex="1" parent="1">
          <mxGeometry x="313.5" y="40" width="100" height="30" as="geometry" />
        </mxCell>
        <mxCell id="4tK40up8DokBDBoEPIN_-8" value="讀卡機" style="rounded=0;whiteSpace=wrap;html=1;" vertex="1" parent="1">
          <mxGeometry x="190" y="40" width="100" height="30" as="geometry" />
        </mxCell>
        <mxCell id="4tK40up8DokBDBoEPIN_-10" value="" style="endArrow=none;dashed=1;html=1;rounded=0;entryX=0.25;entryY=1;entryDx=0;entryDy=0;" edge="1" parent="1">
          <mxGeometry width="50" height="50" relative="1" as="geometry">
            <mxPoint x="110" y="100" as="sourcePoint" />
            <mxPoint x="110" y="70" as="targetPoint" />
          </mxGeometry>
        </mxCell>
        <mxCell id="4tK40up8DokBDBoEPIN_-15" value="" style="endArrow=none;dashed=1;html=1;rounded=0;entryX=0.5;entryY=1;entryDx=0;entryDy=0;" edge="1" parent="1" target="4tK40up8DokBDBoEPIN_-8">
          <mxGeometry width="50" height="50" relative="1" as="geometry">
            <mxPoint x="240" y="100" as="sourcePoint" />
            <mxPoint x="120" y="80" as="targetPoint" />
            <Array as="points">
              <mxPoint x="240" y="90" />
            </Array>
          </mxGeometry>
        </mxCell>
        <mxCell id="4tK40up8DokBDBoEPIN_-16" value="" style="endArrow=none;dashed=1;html=1;rounded=0;" edge="1" parent="1">
          <mxGeometry width="50" height="50" relative="1" as="geometry">
            <mxPoint x="364.71" y="70" as="sourcePoint" />
            <mxPoint x="364.71" y="160" as="targetPoint" />
          </mxGeometry>
        </mxCell>
        <mxCell id="4tK40up8DokBDBoEPIN_-17" value="" style="endArrow=none;dashed=1;html=1;rounded=0;entryX=0.25;entryY=1;entryDx=0;entryDy=0;" edge="1" parent="1" source="4tK40up8DokBDBoEPIN_-34">
          <mxGeometry width="50" height="50" relative="1" as="geometry">
            <mxPoint x="480" y="190" as="sourcePoint" />
            <mxPoint x="479.58" y="70" as="targetPoint" />
          </mxGeometry>
        </mxCell>
        <mxCell id="4tK40up8DokBDBoEPIN_-18" value="" style="endArrow=none;dashed=1;html=1;rounded=0;entryX=0.5;entryY=1;entryDx=0;entryDy=0;" edge="1" parent="1" target="4tK40up8DokBDBoEPIN_-5">
          <mxGeometry width="50" height="50" relative="1" as="geometry">
            <mxPoint x="590" y="520" as="sourcePoint" />
            <mxPoint x="150" y="110" as="targetPoint" />
          </mxGeometry>
        </mxCell>
        <mxCell id="4tK40up8DokBDBoEPIN_-22" style="edgeStyle=elbowEdgeStyle;rounded=0;orthogonalLoop=1;jettySize=auto;html=1;elbow=vertical;curved=0;" edge="1" parent="1">
          <mxGeometry relative="1" as="geometry">
            <mxPoint x="235" y="99.99999999999999" as="targetPoint" />
            <mxPoint x="115" y="99.99999999999999" as="sourcePoint" />
          </mxGeometry>
        </mxCell>
        <mxCell id="4tK40up8DokBDBoEPIN_-20" value="" style="html=1;points=[];perimeter=orthogonalPerimeter;outlineConnect=0;targetShapes=umlLifeline;portConstraint=eastwest;newEdgeStyle={&quot;edgeStyle&quot;:&quot;elbowEdgeStyle&quot;,&quot;elbow&quot;:&quot;vertical&quot;,&quot;curved&quot;:0,&quot;rounded&quot;:0};" vertex="1" parent="1">
          <mxGeometry x="105" y="100" width="10" height="280" as="geometry" />
        </mxCell>
        <mxCell id="4tK40up8DokBDBoEPIN_-32" style="edgeStyle=elbowEdgeStyle;rounded=0;orthogonalLoop=1;jettySize=auto;html=1;elbow=vertical;curved=0;" edge="1" parent="1" source="4tK40up8DokBDBoEPIN_-21" target="4tK40up8DokBDBoEPIN_-31">
          <mxGeometry relative="1" as="geometry" />
        </mxCell>
        <mxCell id="4tK40up8DokBDBoEPIN_-35" style="edgeStyle=elbowEdgeStyle;rounded=0;orthogonalLoop=1;jettySize=auto;html=1;elbow=vertical;curved=0;" edge="1" parent="1">
          <mxGeometry relative="1" as="geometry">
            <mxPoint x="245" y="205.08761904761906" as="sourcePoint" />
            <mxPoint x="475" y="205.08761904761906" as="targetPoint" />
          </mxGeometry>
        </mxCell>
        <mxCell id="4tK40up8DokBDBoEPIN_-21" value="" style="html=1;points=[];perimeter=orthogonalPerimeter;outlineConnect=0;targetShapes=umlLifeline;portConstraint=eastwest;newEdgeStyle={&quot;edgeStyle&quot;:&quot;elbowEdgeStyle&quot;,&quot;elbow&quot;:&quot;vertical&quot;,&quot;curved&quot;:0,&quot;rounded&quot;:0};" vertex="1" parent="1">
          <mxGeometry x="235" y="100" width="10" height="130" as="geometry" />
        </mxCell>
        <mxCell id="4tK40up8DokBDBoEPIN_-23" value="1:插卡()" style="text;html=1;align=center;verticalAlign=middle;resizable=0;points=[];autosize=1;strokeColor=none;fillColor=none;" vertex="1" parent="1">
          <mxGeometry x="135" y="78" width="70" height="30" as="geometry" />
        </mxCell>
        <mxCell id="4tK40up8DokBDBoEPIN_-29" value="" style="group" connectable="0" vertex="1" parent="1">
          <mxGeometry x="290" y="108" height="20" as="geometry" />
        </mxCell>
        <mxCell id="4tK40up8DokBDBoEPIN_-28" value="" style="endArrow=none;html=1;rounded=0;" edge="1" parent="4tK40up8DokBDBoEPIN_-29" source="4tK40up8DokBDBoEPIN_-21">
          <mxGeometry width="50" height="50" relative="1" as="geometry">
            <mxPoint x="-50" y="50" as="sourcePoint" />
            <mxPoint as="targetPoint" />
          </mxGeometry>
        </mxCell>
        <mxCell id="4tK40up8DokBDBoEPIN_-30" value="1.1讀卡號()" style="edgeLabel;html=1;align=center;verticalAlign=middle;resizable=0;points=[];" connectable="0" vertex="1" parent="4tK40up8DokBDBoEPIN_-28">
          <mxGeometry x="0.2087" y="-1" relative="1" as="geometry">
            <mxPoint y="-9" as="offset" />
          </mxGeometry>
        </mxCell>
        <mxCell id="4tK40up8DokBDBoEPIN_-24" style="edgeStyle=elbowEdgeStyle;rounded=0;orthogonalLoop=1;jettySize=auto;html=1;elbow=vertical;curved=0;movable=1;resizable=1;rotatable=1;deletable=1;editable=1;locked=0;connectable=1;" edge="1" parent="1">
          <mxGeometry relative="1" as="geometry">
            <mxPoint x="245" y="128" as="targetPoint" />
            <mxPoint x="290" y="108" as="sourcePoint" />
            <Array as="points">
              <mxPoint x="270" y="128" />
              <mxPoint x="290" y="138" />
              <mxPoint x="290" y="138" />
              <mxPoint x="290" y="118" />
              <mxPoint x="290" y="128" />
              <mxPoint x="290" y="128" />
              <mxPoint x="290" y="138" />
            </Array>
          </mxGeometry>
        </mxCell>
        <mxCell id="4tK40up8DokBDBoEPIN_-31" value="" style="html=1;points=[];perimeter=orthogonalPerimeter;outlineConnect=0;targetShapes=umlLifeline;portConstraint=eastwest;newEdgeStyle={&quot;edgeStyle&quot;:&quot;elbowEdgeStyle&quot;,&quot;elbow&quot;:&quot;vertical&quot;,&quot;curved&quot;:0,&quot;rounded&quot;:0};" vertex="1" parent="1">
          <mxGeometry x="360" y="160" width="10" height="40" as="geometry" />
        </mxCell>
        <mxCell id="4tK40up8DokBDBoEPIN_-33" value="1.2屏幕初始化()" style="text;html=1;align=center;verticalAlign=middle;resizable=0;points=[];autosize=1;strokeColor=none;fillColor=none;" vertex="1" parent="1">
          <mxGeometry x="235" y="150" width="110" height="30" as="geometry" />
        </mxCell>
        <mxCell id="4tK40up8DokBDBoEPIN_-34" value="" style="html=1;points=[];perimeter=orthogonalPerimeter;outlineConnect=0;targetShapes=umlLifeline;portConstraint=eastwest;newEdgeStyle={&quot;edgeStyle&quot;:&quot;elbowEdgeStyle&quot;,&quot;elbow&quot;:&quot;vertical&quot;,&quot;curved&quot;:0,&quot;rounded&quot;:0};" vertex="1" parent="1">
          <mxGeometry x="475" y="205" width="10" height="30" as="geometry" />
        </mxCell>
        <mxCell id="4tK40up8DokBDBoEPIN_-36" value="1.3打開帳目()" style="text;html=1;align=center;verticalAlign=middle;resizable=0;points=[];autosize=1;strokeColor=none;fillColor=none;" vertex="1" parent="1">
          <mxGeometry x="250" y="200" width="100" height="30" as="geometry" />
        </mxCell>
        <mxCell id="4tK40up8DokBDBoEPIN_-41" value="" style="endArrow=none;dashed=1;html=1;rounded=0;" edge="1" parent="1" source="4tK40up8DokBDBoEPIN_-43" target="4tK40up8DokBDBoEPIN_-21">
          <mxGeometry width="50" height="50" relative="1" as="geometry">
            <mxPoint x="240" y="360" as="sourcePoint" />
            <mxPoint x="239.70999999999998" y="240" as="targetPoint" />
          </mxGeometry>
        </mxCell>
        <mxCell id="4tK40up8DokBDBoEPIN_-42" value="" style="endArrow=none;dashed=1;html=1;rounded=0;" edge="1" parent="1" source="4tK40up8DokBDBoEPIN_-66" target="4tK40up8DokBDBoEPIN_-20">
          <mxGeometry width="50" height="50" relative="1" as="geometry">
            <mxPoint x="110" y="560" as="sourcePoint" />
            <mxPoint x="110" y="400" as="targetPoint" />
          </mxGeometry>
        </mxCell>
        <mxCell id="4tK40up8DokBDBoEPIN_-44" value="" style="endArrow=none;dashed=1;html=1;rounded=0;" edge="1" parent="1" source="4tK40up8DokBDBoEPIN_-43">
          <mxGeometry width="50" height="50" relative="1" as="geometry">
            <mxPoint x="240" y="560" as="sourcePoint" />
            <mxPoint x="239.71" y="440" as="targetPoint" />
          </mxGeometry>
        </mxCell>
        <mxCell id="4tK40up8DokBDBoEPIN_-45" value="" style="endArrow=none;dashed=1;html=1;rounded=0;" edge="1" parent="1">
          <mxGeometry width="50" height="50" relative="1" as="geometry">
            <mxPoint x="364.71" y="200" as="sourcePoint" />
            <mxPoint x="365" y="240" as="targetPoint" />
          </mxGeometry>
        </mxCell>
        <mxCell id="4tK40up8DokBDBoEPIN_-57" style="edgeStyle=elbowEdgeStyle;rounded=0;orthogonalLoop=1;jettySize=auto;html=1;elbow=vertical;curved=0;entryX=1.5;entryY=0.538;entryDx=0;entryDy=0;entryPerimeter=0;" edge="1" parent="1" source="4tK40up8DokBDBoEPIN_-47">
          <mxGeometry relative="1" as="geometry">
            <mxPoint x="115" y="240" as="targetPoint" />
            <mxPoint x="355" y="240.12" as="sourcePoint" />
            <Array as="points">
              <mxPoint x="360" y="240" />
            </Array>
          </mxGeometry>
        </mxCell>
        <mxCell id="4tK40up8DokBDBoEPIN_-67" style="edgeStyle=elbowEdgeStyle;rounded=0;orthogonalLoop=1;jettySize=auto;html=1;elbow=vertical;curved=0;" edge="1" parent="1" source="4tK40up8DokBDBoEPIN_-68">
          <mxGeometry relative="1" as="geometry">
            <mxPoint x="360" y="300" as="sourcePoint" />
            <mxPoint x="115" y="300" as="targetPoint" />
          </mxGeometry>
        </mxCell>
        <mxCell id="4tK40up8DokBDBoEPIN_-85" style="edgeStyle=elbowEdgeStyle;rounded=0;orthogonalLoop=1;jettySize=auto;html=1;elbow=vertical;curved=0;" edge="1" parent="1">
          <mxGeometry relative="1" as="geometry">
            <mxPoint x="475" y="260.00000000000006" as="targetPoint" />
            <mxPoint x="370" y="260.00000000000006" as="sourcePoint" />
          </mxGeometry>
        </mxCell>
        <mxCell id="4tK40up8DokBDBoEPIN_-47" value="" style="html=1;points=[];perimeter=orthogonalPerimeter;outlineConnect=0;targetShapes=umlLifeline;portConstraint=eastwest;newEdgeStyle={&quot;edgeStyle&quot;:&quot;elbowEdgeStyle&quot;,&quot;elbow&quot;:&quot;vertical&quot;,&quot;curved&quot;:0,&quot;rounded&quot;:0};" vertex="1" parent="1">
          <mxGeometry x="360" y="240" width="10" height="110" as="geometry" />
        </mxCell>
        <mxCell id="4tK40up8DokBDBoEPIN_-48" value="" style="endArrow=none;dashed=1;html=1;rounded=0;" edge="1" parent="1" source="4tK40up8DokBDBoEPIN_-74">
          <mxGeometry width="50" height="50" relative="1" as="geometry">
            <mxPoint x="364.71" y="470" as="sourcePoint" />
            <mxPoint x="365" y="560" as="targetPoint" />
          </mxGeometry>
        </mxCell>
        <mxCell id="4tK40up8DokBDBoEPIN_-49" value="" style="endArrow=none;dashed=1;html=1;rounded=0;entryX=0.25;entryY=1;entryDx=0;entryDy=0;" edge="1" parent="1">
          <mxGeometry width="50" height="50" relative="1" as="geometry">
            <mxPoint x="480" y="260" as="sourcePoint" />
            <mxPoint x="479.71" y="230" as="targetPoint" />
          </mxGeometry>
        </mxCell>
        <mxCell id="4tK40up8DokBDBoEPIN_-50" value="" style="html=1;points=[];perimeter=orthogonalPerimeter;outlineConnect=0;targetShapes=umlLifeline;portConstraint=eastwest;newEdgeStyle={&quot;edgeStyle&quot;:&quot;elbowEdgeStyle&quot;,&quot;elbow&quot;:&quot;vertical&quot;,&quot;curved&quot;:0,&quot;rounded&quot;:0};" vertex="1" parent="1">
          <mxGeometry x="475" y="260" width="10" height="30" as="geometry" />
        </mxCell>
        <mxCell id="4tK40up8DokBDBoEPIN_-51" value="" style="endArrow=none;dashed=1;html=1;rounded=0;entryX=0.25;entryY=1;entryDx=0;entryDy=0;" edge="1" parent="1" source="4tK40up8DokBDBoEPIN_-52">
          <mxGeometry width="50" height="50" relative="1" as="geometry">
            <mxPoint x="480" y="360" as="sourcePoint" />
            <mxPoint x="479.71" y="290" as="targetPoint" />
          </mxGeometry>
        </mxCell>
        <mxCell id="4tK40up8DokBDBoEPIN_-52" value="" style="html=1;points=[];perimeter=orthogonalPerimeter;outlineConnect=0;targetShapes=umlLifeline;portConstraint=eastwest;newEdgeStyle={&quot;edgeStyle&quot;:&quot;elbowEdgeStyle&quot;,&quot;elbow&quot;:&quot;vertical&quot;,&quot;curved&quot;:0,&quot;rounded&quot;:0};" vertex="1" parent="1">
          <mxGeometry x="475" y="420" width="10" height="90" as="geometry" />
        </mxCell>
        <mxCell id="4tK40up8DokBDBoEPIN_-53" value="" style="endArrow=none;dashed=1;html=1;rounded=0;" edge="1" parent="1" target="4tK40up8DokBDBoEPIN_-89">
          <mxGeometry width="50" height="50" relative="1" as="geometry">
            <mxPoint x="480" y="560" as="sourcePoint" />
            <mxPoint x="479.71" y="540" as="targetPoint" />
          </mxGeometry>
        </mxCell>
        <mxCell id="4tK40up8DokBDBoEPIN_-54" value="" style="html=1;points=[];perimeter=orthogonalPerimeter;outlineConnect=0;targetShapes=umlLifeline;portConstraint=eastwest;newEdgeStyle={&quot;edgeStyle&quot;:&quot;elbowEdgeStyle&quot;,&quot;elbow&quot;:&quot;vertical&quot;,&quot;curved&quot;:0,&quot;rounded&quot;:0};" vertex="1" parent="1">
          <mxGeometry x="585" y="465" width="10" height="30" as="geometry" />
        </mxCell>
        <mxCell id="4tK40up8DokBDBoEPIN_-56" value="" style="endArrow=none;dashed=1;html=1;rounded=0;" edge="1" parent="1" target="4tK40up8DokBDBoEPIN_-54">
          <mxGeometry width="50" height="50" relative="1" as="geometry">
            <mxPoint x="590" y="560" as="sourcePoint" />
            <mxPoint x="590" y="480" as="targetPoint" />
          </mxGeometry>
        </mxCell>
        <mxCell id="4tK40up8DokBDBoEPIN_-55" value="" style="html=1;points=[];perimeter=orthogonalPerimeter;outlineConnect=0;targetShapes=umlLifeline;portConstraint=eastwest;newEdgeStyle={&quot;edgeStyle&quot;:&quot;elbowEdgeStyle&quot;,&quot;elbow&quot;:&quot;vertical&quot;,&quot;curved&quot;:0,&quot;rounded&quot;:0};" vertex="1" parent="1">
          <mxGeometry x="585" y="500" width="10" height="30" as="geometry" />
        </mxCell>
        <mxCell id="4tK40up8DokBDBoEPIN_-58" value="2:提示輸入PIN()" style="text;html=1;align=center;verticalAlign=middle;resizable=0;points=[];autosize=1;strokeColor=none;fillColor=none;" vertex="1" parent="1">
          <mxGeometry x="115" y="210" width="110" height="30" as="geometry" />
        </mxCell>
        <mxCell id="4tK40up8DokBDBoEPIN_-59" value="" style="html=1;points=[];perimeter=orthogonalPerimeter;outlineConnect=0;targetShapes=umlLifeline;portConstraint=eastwest;newEdgeStyle={&quot;edgeStyle&quot;:&quot;elbowEdgeStyle&quot;,&quot;elbow&quot;:&quot;vertical&quot;,&quot;curved&quot;:0,&quot;rounded&quot;:0};" vertex="1" parent="1">
          <mxGeometry x="105" y="240" width="10" height="20" as="geometry" />
        </mxCell>
        <mxCell id="4tK40up8DokBDBoEPIN_-61" style="edgeStyle=elbowEdgeStyle;rounded=0;orthogonalLoop=1;jettySize=auto;html=1;elbow=vertical;curved=0;" edge="1" parent="1">
          <mxGeometry relative="1" as="geometry">
            <mxPoint x="115" y="274.8" as="sourcePoint" />
            <mxPoint x="360" y="274.8" as="targetPoint" />
          </mxGeometry>
        </mxCell>
        <mxCell id="4tK40up8DokBDBoEPIN_-60" value="" style="html=1;points=[];perimeter=orthogonalPerimeter;outlineConnect=0;targetShapes=umlLifeline;portConstraint=eastwest;newEdgeStyle={&quot;edgeStyle&quot;:&quot;elbowEdgeStyle&quot;,&quot;elbow&quot;:&quot;vertical&quot;,&quot;curved&quot;:0,&quot;rounded&quot;:0};" vertex="1" parent="1">
          <mxGeometry x="105" y="260" width="10" height="40" as="geometry" />
        </mxCell>
        <mxCell id="4tK40up8DokBDBoEPIN_-62" value="4:輸入PIN()" style="text;html=1;align=center;verticalAlign=middle;resizable=0;points=[];autosize=1;strokeColor=none;fillColor=none;" vertex="1" parent="1">
          <mxGeometry x="115" y="250" width="90" height="30" as="geometry" />
        </mxCell>
        <mxCell id="4tK40up8DokBDBoEPIN_-70" style="edgeStyle=elbowEdgeStyle;rounded=0;orthogonalLoop=1;jettySize=auto;html=1;elbow=vertical;curved=0;" edge="1" parent="1">
          <mxGeometry relative="1" as="geometry">
            <mxPoint x="115" y="330.00000000000006" as="sourcePoint" />
            <mxPoint x="360" y="330.00000000000006" as="targetPoint" />
          </mxGeometry>
        </mxCell>
        <mxCell id="4tK40up8DokBDBoEPIN_-63" value="" style="html=1;points=[];perimeter=orthogonalPerimeter;outlineConnect=0;targetShapes=umlLifeline;portConstraint=eastwest;newEdgeStyle={&quot;edgeStyle&quot;:&quot;elbowEdgeStyle&quot;,&quot;elbow&quot;:&quot;vertical&quot;,&quot;curved&quot;:0,&quot;rounded&quot;:0};" vertex="1" parent="1">
          <mxGeometry x="105" y="320" width="10" height="30" as="geometry" />
        </mxCell>
        <mxCell id="4tK40up8DokBDBoEPIN_-64" value="" style="html=1;points=[];perimeter=orthogonalPerimeter;outlineConnect=0;targetShapes=umlLifeline;portConstraint=eastwest;newEdgeStyle={&quot;edgeStyle&quot;:&quot;elbowEdgeStyle&quot;,&quot;elbow&quot;:&quot;vertical&quot;,&quot;curved&quot;:0,&quot;rounded&quot;:0};" vertex="1" parent="1">
          <mxGeometry x="105" y="300" width="10" height="20" as="geometry" />
        </mxCell>
        <mxCell id="4tK40up8DokBDBoEPIN_-65" value="" style="html=1;points=[];perimeter=orthogonalPerimeter;outlineConnect=0;targetShapes=umlLifeline;portConstraint=eastwest;newEdgeStyle={&quot;edgeStyle&quot;:&quot;elbowEdgeStyle&quot;,&quot;elbow&quot;:&quot;vertical&quot;,&quot;curved&quot;:0,&quot;rounded&quot;:0};" vertex="1" parent="1">
          <mxGeometry x="105" y="350" width="10" height="20" as="geometry" />
        </mxCell>
        <mxCell id="4tK40up8DokBDBoEPIN_-80" style="edgeStyle=elbowEdgeStyle;rounded=0;orthogonalLoop=1;jettySize=auto;html=1;elbow=vertical;curved=0;" edge="1" parent="1" source="4tK40up8DokBDBoEPIN_-66">
          <mxGeometry relative="1" as="geometry">
            <mxPoint x="360" y="400" as="targetPoint" />
          </mxGeometry>
        </mxCell>
        <mxCell id="4tK40up8DokBDBoEPIN_-69" value="" style="edgeStyle=elbowEdgeStyle;rounded=0;orthogonalLoop=1;jettySize=auto;html=1;elbow=vertical;curved=0;" edge="1" parent="1" target="4tK40up8DokBDBoEPIN_-64">
          <mxGeometry relative="1" as="geometry">
            <mxPoint x="360" y="300" as="sourcePoint" />
            <mxPoint x="115" y="300" as="targetPoint" />
          </mxGeometry>
        </mxCell>
        <mxCell id="4tK40up8DokBDBoEPIN_-68" value="4.1提示選擇事物()" style="text;html=1;align=center;verticalAlign=middle;resizable=0;points=[];autosize=1;strokeColor=none;fillColor=none;" vertex="1" parent="1">
          <mxGeometry x="115" y="270" width="120" height="30" as="geometry" />
        </mxCell>
        <mxCell id="4tK40up8DokBDBoEPIN_-71" value="5:選擇事物()" style="text;html=1;align=center;verticalAlign=middle;resizable=0;points=[];autosize=1;strokeColor=none;fillColor=none;" vertex="1" parent="1">
          <mxGeometry x="120" y="300" width="90" height="30" as="geometry" />
        </mxCell>
        <mxCell id="4tK40up8DokBDBoEPIN_-73" value="" style="html=1;points=[];perimeter=orthogonalPerimeter;outlineConnect=0;targetShapes=umlLifeline;portConstraint=eastwest;newEdgeStyle={&quot;edgeStyle&quot;:&quot;elbowEdgeStyle&quot;,&quot;elbow&quot;:&quot;vertical&quot;,&quot;curved&quot;:0,&quot;rounded&quot;:0};" vertex="1" parent="1">
          <mxGeometry x="360" y="270" width="10" height="60" as="geometry" />
        </mxCell>
        <mxCell id="4tK40up8DokBDBoEPIN_-76" value="" style="endArrow=none;dashed=1;html=1;rounded=0;" edge="1" parent="1" source="4tK40up8DokBDBoEPIN_-47" target="4tK40up8DokBDBoEPIN_-75">
          <mxGeometry width="50" height="50" relative="1" as="geometry">
            <mxPoint x="365" y="350" as="sourcePoint" />
            <mxPoint x="365" y="560" as="targetPoint" />
          </mxGeometry>
        </mxCell>
        <mxCell id="4tK40up8DokBDBoEPIN_-78" style="edgeStyle=elbowEdgeStyle;rounded=0;orthogonalLoop=1;jettySize=auto;html=1;elbow=vertical;curved=0;" edge="1" parent="1">
          <mxGeometry relative="1" as="geometry">
            <mxPoint x="358.5" y="370" as="sourcePoint" />
            <mxPoint x="113.5" y="370" as="targetPoint" />
          </mxGeometry>
        </mxCell>
        <mxCell id="4tK40up8DokBDBoEPIN_-75" value="" style="html=1;points=[];perimeter=orthogonalPerimeter;outlineConnect=0;targetShapes=umlLifeline;portConstraint=eastwest;newEdgeStyle={&quot;edgeStyle&quot;:&quot;elbowEdgeStyle&quot;,&quot;elbow&quot;:&quot;vertical&quot;,&quot;curved&quot;:0,&quot;rounded&quot;:0};" vertex="1" parent="1">
          <mxGeometry x="358.5" y="370" width="10" height="20" as="geometry" />
        </mxCell>
        <mxCell id="4tK40up8DokBDBoEPIN_-77" value="" style="endArrow=none;dashed=1;html=1;rounded=0;" edge="1" parent="1" source="4tK40up8DokBDBoEPIN_-75" target="4tK40up8DokBDBoEPIN_-74">
          <mxGeometry width="50" height="50" relative="1" as="geometry">
            <mxPoint x="365" y="370" as="sourcePoint" />
            <mxPoint x="365" y="560" as="targetPoint" />
          </mxGeometry>
        </mxCell>
        <mxCell id="4tK40up8DokBDBoEPIN_-87" style="edgeStyle=elbowEdgeStyle;rounded=0;orthogonalLoop=1;jettySize=auto;html=1;elbow=vertical;curved=0;" edge="1" parent="1" target="4tK40up8DokBDBoEPIN_-52">
          <mxGeometry relative="1" as="geometry">
            <mxPoint x="470" y="420" as="targetPoint" />
            <mxPoint x="368.5" y="419.6" as="sourcePoint" />
          </mxGeometry>
        </mxCell>
        <mxCell id="4tK40up8DokBDBoEPIN_-74" value="" style="html=1;points=[];perimeter=orthogonalPerimeter;outlineConnect=0;targetShapes=umlLifeline;portConstraint=eastwest;newEdgeStyle={&quot;edgeStyle&quot;:&quot;elbowEdgeStyle&quot;,&quot;elbow&quot;:&quot;vertical&quot;,&quot;curved&quot;:0,&quot;rounded&quot;:0};" vertex="1" parent="1">
          <mxGeometry x="360" y="400" width="10" height="20" as="geometry" />
        </mxCell>
        <mxCell id="4tK40up8DokBDBoEPIN_-79" value="6:提示金額()" style="text;html=1;align=center;verticalAlign=middle;resizable=0;points=[];autosize=1;strokeColor=none;fillColor=none;" vertex="1" parent="1">
          <mxGeometry x="120" y="340" width="90" height="30" as="geometry" />
        </mxCell>
        <mxCell id="4tK40up8DokBDBoEPIN_-82" value="" style="endArrow=none;dashed=1;html=1;rounded=0;" edge="1" parent="1" target="4tK40up8DokBDBoEPIN_-43">
          <mxGeometry width="50" height="50" relative="1" as="geometry">
            <mxPoint x="240" y="560" as="sourcePoint" />
            <mxPoint x="239.71" y="440" as="targetPoint" />
          </mxGeometry>
        </mxCell>
        <mxCell id="4tK40up8DokBDBoEPIN_-43" value="" style="html=1;points=[];perimeter=orthogonalPerimeter;outlineConnect=0;targetShapes=umlLifeline;portConstraint=eastwest;newEdgeStyle={&quot;edgeStyle&quot;:&quot;elbowEdgeStyle&quot;,&quot;elbow&quot;:&quot;vertical&quot;,&quot;curved&quot;:0,&quot;rounded&quot;:0};" vertex="1" parent="1">
          <mxGeometry x="235" y="490" width="10" height="40" as="geometry" />
        </mxCell>
        <mxCell id="4tK40up8DokBDBoEPIN_-83" value="7:輸入金額(20)" style="text;html=1;align=center;verticalAlign=middle;resizable=0;points=[];autosize=1;strokeColor=none;fillColor=none;" vertex="1" parent="1">
          <mxGeometry x="120" y="370" width="100" height="30" as="geometry" />
        </mxCell>
        <mxCell id="4tK40up8DokBDBoEPIN_-84" value="" style="endArrow=none;dashed=1;html=1;rounded=0;" edge="1" parent="1" target="4tK40up8DokBDBoEPIN_-66">
          <mxGeometry width="50" height="50" relative="1" as="geometry">
            <mxPoint x="110" y="560" as="sourcePoint" />
            <mxPoint x="110" y="380" as="targetPoint" />
          </mxGeometry>
        </mxCell>
        <mxCell id="4tK40up8DokBDBoEPIN_-66" value="" style="html=1;points=[];perimeter=orthogonalPerimeter;outlineConnect=0;targetShapes=umlLifeline;portConstraint=eastwest;newEdgeStyle={&quot;edgeStyle&quot;:&quot;elbowEdgeStyle&quot;,&quot;elbow&quot;:&quot;vertical&quot;,&quot;curved&quot;:0,&quot;rounded&quot;:0};" vertex="1" parent="1">
          <mxGeometry x="105" y="400" width="10" height="20" as="geometry" />
        </mxCell>
        <mxCell id="4tK40up8DokBDBoEPIN_-86" value="3:驗證PIN()" style="text;html=1;align=center;verticalAlign=middle;resizable=0;points=[];autosize=1;strokeColor=none;fillColor=none;" vertex="1" parent="1">
          <mxGeometry x="369" y="235" width="90" height="30" as="geometry" />
        </mxCell>
        <mxCell id="4tK40up8DokBDBoEPIN_-88" value="7.1取錢(20)" style="text;html=1;align=center;verticalAlign=middle;resizable=0;points=[];autosize=1;strokeColor=none;fillColor=none;" vertex="1" parent="1">
          <mxGeometry x="374" y="390" width="90" height="30" as="geometry" />
        </mxCell>
        <mxCell id="4tK40up8DokBDBoEPIN_-90" style="edgeStyle=elbowEdgeStyle;rounded=0;orthogonalLoop=1;jettySize=auto;html=1;elbow=vertical;curved=0;" edge="1" parent="1">
          <mxGeometry relative="1" as="geometry">
            <mxPoint x="245" y="490" as="targetPoint" />
            <mxPoint x="475" y="490" as="sourcePoint" />
          </mxGeometry>
        </mxCell>
        <mxCell id="4tK40up8DokBDBoEPIN_-102" style="edgeStyle=elbowEdgeStyle;rounded=0;orthogonalLoop=1;jettySize=auto;html=1;elbow=vertical;curved=0;" edge="1" parent="1" source="4tK40up8DokBDBoEPIN_-89" target="4tK40up8DokBDBoEPIN_-54">
          <mxGeometry relative="1" as="geometry" />
        </mxCell>
        <mxCell id="4tK40up8DokBDBoEPIN_-104" style="edgeStyle=elbowEdgeStyle;rounded=0;orthogonalLoop=1;jettySize=auto;html=1;elbow=vertical;curved=0;" edge="1" parent="1">
          <mxGeometry relative="1" as="geometry">
            <mxPoint x="485" y="500" as="sourcePoint" />
            <mxPoint x="585" y="500" as="targetPoint" />
          </mxGeometry>
        </mxCell>
        <mxCell id="4tK40up8DokBDBoEPIN_-89" value="" style="html=1;points=[];perimeter=orthogonalPerimeter;outlineConnect=0;targetShapes=umlLifeline;portConstraint=eastwest;newEdgeStyle={&quot;edgeStyle&quot;:&quot;elbowEdgeStyle&quot;,&quot;elbow&quot;:&quot;vertical&quot;,&quot;curved&quot;:0,&quot;rounded&quot;:0};" vertex="1" parent="1">
          <mxGeometry x="475" y="490" width="10" height="50" as="geometry" />
        </mxCell>
        <mxCell id="4tK40up8DokBDBoEPIN_-91" value="&lt;div&gt;&lt;br&gt;&lt;/div&gt;&lt;div&gt;&lt;br&gt;&lt;/div&gt;8:退卡()" style="text;html=1;align=center;verticalAlign=middle;resizable=0;points=[];autosize=1;strokeColor=none;fillColor=none;" vertex="1" parent="1">
          <mxGeometry x="304" y="435" width="70" height="60" as="geometry" />
        </mxCell>
        <mxCell id="4tK40up8DokBDBoEPIN_-93" value="" style="group" connectable="0" vertex="1" parent="1">
          <mxGeometry x="530" y="420" height="20" as="geometry" />
        </mxCell>
        <mxCell id="4tK40up8DokBDBoEPIN_-94" value="" style="endArrow=none;html=1;rounded=0;" edge="1" parent="4tK40up8DokBDBoEPIN_-93" source="4tK40up8DokBDBoEPIN_-52">
          <mxGeometry width="50" height="50" relative="1" as="geometry">
            <mxPoint x="-50" y="50" as="sourcePoint" />
            <mxPoint y="10" as="targetPoint" />
            <Array as="points">
              <mxPoint x="-20" y="10" />
            </Array>
          </mxGeometry>
        </mxCell>
        <mxCell id="4tK40up8DokBDBoEPIN_-95" value="7.1.1驗證錢數(20)" style="edgeLabel;html=1;align=center;verticalAlign=middle;resizable=0;points=[];" connectable="0" vertex="1" parent="4tK40up8DokBDBoEPIN_-94">
          <mxGeometry x="0.2087" y="-1" relative="1" as="geometry">
            <mxPoint x="18" y="-11" as="offset" />
          </mxGeometry>
        </mxCell>
        <mxCell id="4tK40up8DokBDBoEPIN_-96" style="edgeStyle=elbowEdgeStyle;rounded=0;orthogonalLoop=1;jettySize=auto;html=1;elbow=vertical;curved=0;movable=1;resizable=1;rotatable=1;deletable=1;editable=1;locked=0;connectable=1;" edge="1" parent="1" target="4tK40up8DokBDBoEPIN_-52">
          <mxGeometry relative="1" as="geometry">
            <mxPoint x="485" y="450" as="targetPoint" />
            <mxPoint x="530" y="430" as="sourcePoint" />
            <Array as="points">
              <mxPoint x="530" y="440" />
              <mxPoint x="530" y="460" />
              <mxPoint x="530" y="460" />
              <mxPoint x="530" y="440" />
              <mxPoint x="530" y="450" />
              <mxPoint x="530" y="450" />
              <mxPoint x="530" y="460" />
            </Array>
          </mxGeometry>
        </mxCell>
        <mxCell id="4tK40up8DokBDBoEPIN_-97" style="edgeStyle=elbowEdgeStyle;rounded=0;orthogonalLoop=1;jettySize=auto;html=1;elbow=vertical;curved=0;movable=1;resizable=1;rotatable=1;deletable=1;editable=1;locked=0;connectable=1;exitX=0.495;exitY=0.998;exitDx=0;exitDy=0;exitPerimeter=0;" edge="1" parent="1" source="4tK40up8DokBDBoEPIN_-100">
          <mxGeometry relative="1" as="geometry">
            <mxPoint x="485" y="472.5" as="targetPoint" />
            <mxPoint x="530" y="457.5" as="sourcePoint" />
            <Array as="points">
              <mxPoint x="510" y="472.5" />
              <mxPoint x="530" y="482.5" />
              <mxPoint x="530" y="482.5" />
              <mxPoint x="530" y="462.5" />
              <mxPoint x="530" y="472.5" />
              <mxPoint x="530" y="472.5" />
              <mxPoint x="530" y="482.5" />
            </Array>
          </mxGeometry>
        </mxCell>
        <mxCell id="4tK40up8DokBDBoEPIN_-98" value="" style="endArrow=none;html=1;rounded=0;" edge="1" parent="1">
          <mxGeometry width="50" height="50" relative="1" as="geometry">
            <mxPoint x="485" y="464.77" as="sourcePoint" />
            <mxPoint x="530" y="464.77" as="targetPoint" />
            <Array as="points">
              <mxPoint x="510" y="464.77" />
            </Array>
          </mxGeometry>
        </mxCell>
        <mxCell id="4tK40up8DokBDBoEPIN_-103" value="7.1.1.1.1:提供錢(20)" style="text;html=1;align=center;verticalAlign=middle;resizable=0;points=[];autosize=1;strokeColor=none;fillColor=none;" vertex="1" parent="1">
          <mxGeometry x="465" y="468" width="130" height="30" as="geometry" />
        </mxCell>
        <mxCell id="4tK40up8DokBDBoEPIN_-105" value="7.1.1.2:提供收據()" style="text;html=1;align=center;verticalAlign=middle;resizable=0;points=[];autosize=1;strokeColor=none;fillColor=none;" vertex="1" parent="1">
          <mxGeometry x="470" y="498" width="120" height="30" as="geometry" />
        </mxCell>
      </root>
    </mxGraphModel>
  </diagram>
</mxfile>
